<?xml version="1.0" standalone="no"?>
<svg xmlns="http://www.w3.org/2000/svg" viewBox="0 0 117.8 104.561" width="117.8" height="104.561"><rect fill="#85929E" width="117.8" height="104.561" x="0" y="0"></rect><path fill="white" fill-rule="nonzero" d="M15.08 30.56L0 30.56L0 1.04L5.84 0.56L5.84 25.88L15.68 25.88L15.08 30.56ZM27.48 31.12Q23 31.12 20.76 28.24Q18.52 25.36 18.52 20.68L18.52 20.68L18.52 0.80L24.40 0.56L24.40 21.16Q24.40 22.72 24.58 23.80Q24.76 24.88 25.48 25.64Q26.20 26.40 27.68 26.40L27.68 26.40Q29.08 26.40 29.74 25.62Q30.40 24.84 30.56 23.78Q30.72 22.72 30.72 21.08L30.72 21.08L30.72 1.04L36.08 0.56L36.08 20Q36.08 24.24 34.42 27.68Q32.76 31.12 27.48 31.12L27.48 31.12ZM47.36 30.32L41.48 30.80L41.48 1.04L47.36 0.56L47.36 30.32ZM60.88 31.12Q57.24 31.12 54.74 29.10Q52.24 27.08 51.08 23.68L51.08 23.68L56.04 21.36L56.52 22.16Q57.68 24.16 58.74 25.28Q59.80 26.40 61.40 26.40L61.40 26.40Q62.44 26.40 63.26 25.40Q64.08 24.40 64.08 23.20L64.08 23.20Q64.08 22.08 63.52 21.16Q62.96 20.24 62.08 19.68L62.08 19.68L56.84 16.56Q54.56 15.28 53.20 13.32Q51.84 11.36 51.84 8.92L51.84 8.92Q51.84 6.32 53.06 4.28Q54.28 2.24 56.38 1.12Q58.48 0 61.12 0L61.12 0Q64.20 0 66.36 1.52Q68.52 3.04 69.56 6.04L69.56 6.04L64.60 8.28Q64.44 7.96 63.92 6.84Q63.40 5.72 62.66 5.22Q61.92 4.72 60.84 4.72L60.84 4.72Q59.52 4.72 58.82 5.56Q58.12 6.40 58.12 7.72L58.12 7.72Q58.12 8.68 58.66 9.46Q59.20 10.24 59.96 10.68L59.96 10.68L64.80 13.52Q70.16 16.56 70.44 21.52L70.44 21.52Q70.44 24.36 69.18 26.54Q67.92 28.72 65.74 29.92Q63.56 31.12 60.88 31.12L60.88 31.12Z" transform="translate(12 12) scale(1.332)"></path><path fill="white" fill-rule="nonzero" d="M0 30.80L0 0.56L3.76 0.56Q8.28 0.56 10.96 0.94Q13.64 1.32 15.70 3.28Q17.76 5.24 17.76 9.56L17.76 9.56Q17.76 13.48 16.02 15.50Q14.28 17.52 11.74 18.14Q9.20 18.76 5.88 18.76L5.88 18.76L5.88 30.32L0 30.80ZM5.92 14.00L6.92 14.00Q9.24 14.00 10.58 13.04Q11.92 12.08 11.92 9.52L11.92 9.52Q11.92 7.00 10.68 6.12Q9.44 5.24 6.76 5.24L6.76 5.24L5.92 5.24L5.92 14.00ZM27.20 30.32L21.32 30.80L21.32 1.04L27.20 0.56L27.20 30.32ZM51.64 30.32L46.80 30.80L38.04 12.04L38.04 30.32L32.80 30.56L32.80 0.80L38.92 0.56L46.68 18.40L46.68 1.04L51.64 0.56L51.64 30.32ZM66.96 30.32L61.12 30.80L61.12 5.24L55 5.24L55.44 0.56L73.04 0.56L72.56 5.24L66.96 5.24L66.96 30.32ZM84.40 31.12Q79.32 31.12 77.26 26.74Q75.20 22.36 75.20 15.40L75.20 15.40Q75.20 8.00 77.40 4Q79.60 0 84.48 0L84.48 0Q93.80 0 93.80 15.24L93.80 15.24Q93.80 22.08 91.70 26.60Q89.60 31.12 84.40 31.12L84.40 31.12ZM84.48 26.40Q86.60 26.40 87.28 23.62Q87.96 20.84 87.96 15.20L87.96 15.20Q87.96 10.68 87.30 7.70Q86.64 4.72 84.48 4.72L84.48 4.72Q82.32 4.72 81.68 7.68Q81.04 10.64 81.04 15.16L81.04 15.16Q81.04 20.84 81.70 23.62Q82.36 26.40 84.48 26.40L84.48 26.40Z" transform="translate(12 61.441) scale(1)"></path></svg>